<svg width="106" height="19" viewBox="0 0 106 19" fill="none" xmlns="http://www.w3.org/2000/svg">
<path d="M0.905219 15.648L5.80122 3.6H1.14522V1.2H8.63322V3.552L3.73722 15.6H8.63322V18H0.905219V15.648ZM25.9685 18.24C24.6885 18.24 23.7125 17.88 23.0405 17.16C22.3685 16.424 22.0325 15.376 22.0325 14.016V1.2H24.6725V14.208C24.6725 14.784 24.7845 15.2 25.0085 15.456C25.2485 15.712 25.5845 15.84 26.0165 15.84C26.4485 15.84 26.7765 15.712 27.0005 15.456C27.2405 15.2 27.3605 14.784 27.3605 14.208V1.2H29.9045V14.016C29.9045 15.376 29.5685 16.424 28.8965 17.16C28.2245 17.88 27.2485 18.24 25.9685 18.24ZM43.7848 1.2H47.6968C49.0568 1.2 50.0488 1.52 50.6728 2.16C51.2968 2.784 51.6088 3.752 51.6088 5.064V6.096C51.6088 7.84 51.0328 8.944 49.8808 9.408V9.456C50.5208 9.648 50.9688 10.04 51.2248 10.632C51.4968 11.224 51.6328 12.016 51.6328 13.008V15.96C51.6328 16.44 51.6488 16.832 51.6808 17.136C51.7128 17.424 51.7928 17.712 51.9208 18H49.2328C49.1368 17.728 49.0728 17.472 49.0408 17.232C49.0088 16.992 48.9928 16.56 48.9928 15.936V12.864C48.9928 12.096 48.8648 11.56 48.6088 11.256C48.3688 10.952 47.9448 10.8 47.3368 10.8H46.4248V18H43.7848V1.2ZM47.3848 8.4C47.9128 8.4 48.3048 8.264 48.5608 7.992C48.8328 7.72 48.9688 7.264 48.9688 6.624V5.328C48.9688 4.72 48.8568 4.28 48.6328 4.008C48.4248 3.736 48.0888 3.6 47.6248 3.6H46.4248V8.4H47.3848ZM65.4645 1.2H68.1045V18H65.4645V1.2ZM85.5137 18.24C84.2337 18.24 83.2657 17.88 82.6097 17.16C81.9537 16.424 81.6257 15.376 81.6257 14.016V13.056H84.1217V14.208C84.1217 15.296 84.5777 15.84 85.4897 15.84C85.9377 15.84 86.2737 15.712 86.4977 15.456C86.7377 15.184 86.8577 14.752 86.8577 14.16C86.8577 13.456 86.6977 12.84 86.3777 12.312C86.0577 11.768 85.4657 11.12 84.6017 10.368C83.5137 9.408 82.7537 8.544 82.3217 7.776C81.8897 6.992 81.6737 6.112 81.6737 5.136C81.6737 3.808 82.0097 2.784 82.6817 2.064C83.3537 1.328 84.3297 0.959999 85.6097 0.959999C86.8737 0.959999 87.8257 1.328 88.4657 2.064C89.1217 2.784 89.4497 3.824 89.4497 5.184V5.88H86.9537V5.016C86.9537 4.44 86.8417 4.024 86.6177 3.768C86.3937 3.496 86.0657 3.36 85.6337 3.36C84.7537 3.36 84.3137 3.896 84.3137 4.968C84.3137 5.576 84.4737 6.144 84.7937 6.672C85.1297 7.2 85.7297 7.84 86.5937 8.592C87.6977 9.552 88.4577 10.424 88.8737 11.208C89.2897 11.992 89.4977 12.912 89.4977 13.968C89.4977 15.344 89.1537 16.4 88.4657 17.136C87.7937 17.872 86.8097 18.24 85.5137 18.24ZM103.875 3.744H103.011V1.2H105.555V3.48L104.091 6.624H102.867L103.875 3.744Z" fill="white"/>
</svg>
